<svg width="30" height="32" viewBox="0 0 30 32" fill="none" xmlns="http://www.w3.org/2000/svg">
<path d="M22.3952 12.3346C21.3114 12.3351 20.4307 12.5386 19.4821 12.9455C20.9729 11.7255 21.9221 9.82841 21.9906 7.72841C22.1276 3.93486 19.1483 0.68447 15.2871 0.482775C11.4936 0.484276 8.3086 3.53388 8.17162 7.32743C8.10305 9.42743 8.9829 11.3916 10.405 12.6781C9.52451 12.2042 8.57625 11.9337 7.56016 11.8663C3.76666 11.8678 0.581627 14.9174 0.444645 18.711C0.307661 22.5045 3.28698 25.7549 7.14814 25.9566C10.2642 25.9554 12.9747 23.9221 13.9242 21.0766C13.5167 23.6509 12.4306 29.3416 11.2103 31.7807L17.5779 31.9137C16.495 29.4754 15.7521 23.7177 15.5499 21.0759C16.2939 23.9885 18.8672 26.1552 22.051 26.3572C25.8445 26.3557 29.0295 23.3061 29.1665 19.5125C29.168 15.719 26.2564 12.5363 22.3952 12.3346Z" fill="url(#paint0_linear_314_96)"/>
<defs>
<linearGradient id="paint0_linear_314_96" x1="24.6684" y1="26.6705" x2="5.41857" y2="7.42062" gradientUnits="userSpaceOnUse">
<stop stop-color="#F8CE4F"/>
<stop offset="1" stop-color="#E1B83C"/>
</linearGradient>
</defs>
</svg>
