<svg width="129" height="222" viewBox="0 0 129 222" fill="none" xmlns="http://www.w3.org/2000/svg">
<path d="M19.1983 38.0953H35.3843C50.0988 38.0953 62.1975 50.0308 62.1975 64.9092V120.172C62.1975 134.069 55.0037 146.659 43.559 154.507C33.0953 161.537 26.5556 173.8 27.7 187.534C29.008 205.518 43.7225 220.07 61.707 221.214C82.9614 222.522 100.619 205.682 100.619 184.754C100.619 171.511 93.5885 159.902 82.9614 153.362C72.1707 146.822 65.9579 134.887 65.9579 122.134V64.7457C65.9579 50.0307 77.893 37.9318 92.7711 37.9318H108.957C118.767 37.9318 127.432 30.7379 128.413 20.9279C129.557 9.64646 120.565 0 109.611 0H19.0348C7.91708 0 -0.911652 9.64646 0.232813 20.9279C0.723299 30.7379 9.38855 38.0953 19.1983 38.0953Z" fill="url(#paint0_linear_91_686)"/>
<defs>
<linearGradient id="paint0_linear_91_686" x1="64.3221" y1="0" x2="64.3221" y2="221.286" gradientUnits="userSpaceOnUse">
<stop stop-color="#FFD65B"/>
<stop offset="1" stop-color="#F1C336"/>
</linearGradient>
</defs>
</svg>
