<svg width="131" height="216" viewBox="0 0 131 216" fill="none" xmlns="http://www.w3.org/2000/svg">
<path d="M20.3784 176.988H48.8265C57.4918 176.988 64.5221 169.958 64.5221 161.456L65.0125 100.144C65.0125 92.6227 60.4347 85.9192 53.4044 83.4667C35.9104 77.5807 23.3213 60.5768 24.4658 40.7934C25.4468 20.356 43.5947 2.04413 63.8681 0.572639C88.7193 -1.22585 109.483 18.5575 109.483 43.0824C109.483 61.7213 97.5481 77.5807 80.7081 83.3032C73.5143 85.7557 68.6095 92.4592 68.6095 99.9801L68.7729 161.292C68.7729 169.958 75.8032 176.988 84.4685 176.988H110.955C120.928 176.988 129.757 184.346 130.738 194.319C131.882 205.764 122.89 215.411 111.609 215.411H19.7244C8.44328 215.411 -0.548965 205.764 0.595505 194.319C1.57646 184.346 10.4052 176.988 20.3784 176.988Z" fill="url(#paint0_linear_91_690)"/>
<defs>
<linearGradient id="paint0_linear_91_690" x1="65.6665" y1="0.458984" x2="65.6665" y2="215.411" gradientUnits="userSpaceOnUse">
<stop stop-color="#FFD65B"/>
<stop offset="1" stop-color="#F1C336"/>
</linearGradient>
</defs>
</svg>
