<svg width="131" height="219" viewBox="0 0 131 219" fill="none" xmlns="http://www.w3.org/2000/svg">
<path d="M110.428 180.345H94.0785C79.0369 180.345 66.9382 168.246 66.9382 153.204V103.337C66.9382 89.2762 74.2956 76.5233 85.9037 68.5119C96.3674 61.3179 103.071 48.892 102.09 34.9945C100.782 16.8461 85.7402 2.13116 67.5923 0.823181C46.0109 -0.484818 28.1899 16.5191 28.1899 37.774C28.1899 51.1809 35.3837 62.9529 46.1743 69.4929C57.1285 76.0328 63.5049 88.2953 63.5049 101.048V153.204C63.5049 168.246 51.4062 180.345 36.3646 180.345H20.0151C10.0419 180.345 1.21326 187.703 0.232285 197.676C-0.912186 209.121 8.08007 218.768 19.3612 218.768H111.245C122.527 218.768 131.519 209.121 130.374 197.676C129.23 187.703 120.401 180.345 110.428 180.345Z" fill="url(#paint0_linear_91_687)"/>
<defs>
<linearGradient id="paint0_linear_91_687" x1="65.3033" y1="218.768" x2="65.3033" y2="0.752472" gradientUnits="userSpaceOnUse">
<stop stop-color="#FFD65B"/>
<stop offset="1" stop-color="#F1C336"/>
</linearGradient>
</defs>
</svg>
