<svg width="131" height="219" viewBox="0 0 131 219" fill="none" xmlns="http://www.w3.org/2000/svg">
<path d="M20.572 180.345H36.9215C51.9631 180.345 64.0618 168.246 64.0618 153.204V103.337C64.0618 89.2762 56.7044 76.5233 45.0963 68.5119C34.6326 61.3179 27.9294 48.892 28.9103 34.9945C30.2183 16.8461 45.2598 2.13116 63.4077 0.823181C84.9891 -0.484818 102.81 16.5191 102.81 37.774C102.81 51.1809 95.6163 62.9529 84.8257 69.4929C73.8715 76.0328 67.4951 88.2953 67.4951 101.048V153.204C67.4951 168.246 79.5938 180.345 94.6354 180.345H110.985C120.958 180.345 129.787 187.703 130.768 197.676C131.912 209.121 122.92 218.768 111.639 218.768H19.7546C8.4734 218.768 -0.51875 209.121 0.625715 197.676C1.77018 187.703 10.5988 180.345 20.572 180.345Z" fill="url(#paint0_linear_91_688)"/>
<defs>
<linearGradient id="paint0_linear_91_688" x1="65.6967" y1="218.768" x2="65.6967" y2="0.752472" gradientUnits="userSpaceOnUse">
<stop stop-color="#FFD65B"/>
<stop offset="1" stop-color="#F1C336"/>
</linearGradient>
</defs>
</svg>
