<svg width="131" height="215" viewBox="0 0 131 215" fill="none" xmlns="http://www.w3.org/2000/svg">
<path d="M20.4487 38.422H48.8969C57.5621 38.422 64.5924 45.4524 64.5924 53.9544L65.0829 115.267C65.0829 122.787 60.505 129.491 53.4747 131.943C35.9808 137.829 23.3916 154.833 24.5361 174.617C25.5171 195.054 43.665 213.366 63.9384 214.838C88.7896 216.636 109.554 196.853 109.554 172.328C109.554 153.689 97.6184 137.829 80.7784 132.107C73.5846 129.654 68.6798 122.951 68.6798 115.43L68.8432 54.1178C68.8432 45.4524 75.8735 38.422 84.5388 38.422H111.025C120.998 38.422 129.827 31.0645 130.808 21.091C131.952 9.64609 122.96 -0.000366211 111.679 -0.000366211H19.7948C8.5136 -0.000366211 -0.478653 9.64609 0.665817 21.091C1.64677 31.0645 10.4755 38.422 20.4487 38.422Z" fill="url(#paint0_linear_91_691)"/>
<defs>
<linearGradient id="paint0_linear_91_691" x1="65.7368" y1="214.951" x2="65.7368" y2="-0.000366211" gradientUnits="userSpaceOnUse">
<stop stop-color="#FFD65B"/>
<stop offset="1" stop-color="#F1C336"/>
</linearGradient>
</defs>
</svg>
