<svg width="131" height="216" viewBox="0 0 131 216" fill="none" xmlns="http://www.w3.org/2000/svg">
<path d="M110.981 176.988H82.5328C73.8676 176.988 66.8373 169.958 66.8373 161.456L66.3468 100.144C66.3468 92.6227 70.9247 85.9192 77.955 83.4667C95.4489 77.5807 108.038 60.5768 106.894 40.7934C105.913 20.356 87.7647 2.04413 67.4913 0.572639C42.64 -1.22585 21.8762 18.5575 21.8762 43.0824C21.8762 61.7213 33.8113 77.5807 50.6513 83.3032C57.8451 85.7557 62.7499 92.4592 62.7499 99.9801L62.5864 161.292C62.5864 169.958 55.5562 176.988 46.8909 176.988H20.4047C10.4315 176.988 1.60278 184.346 0.621808 194.319C-0.522657 205.764 8.46959 215.411 19.7507 215.411H111.635C122.916 215.411 131.908 205.764 130.764 194.319C129.783 184.346 120.954 176.988 110.981 176.988Z" fill="url(#paint0_linear_91_689)"/>
<defs>
<linearGradient id="paint0_linear_91_689" x1="65.6928" y1="0.458984" x2="65.6928" y2="215.411" gradientUnits="userSpaceOnUse">
<stop stop-color="#FFD65B"/>
<stop offset="1" stop-color="#F1C336"/>
</linearGradient>
</defs>
</svg>
