<svg width="132" height="255" viewBox="0 0 132 255" fill="none" xmlns="http://www.w3.org/2000/svg">
<path d="M20.5659 216.429H36.9154C51.9569 216.429 64.0556 204.33 64.0556 189.288V103.451C64.0556 89.3903 56.6983 76.6374 45.0901 68.6259C34.6264 61.432 27.9231 49.0061 28.9041 35.1086C30.2121 16.9602 45.2536 2.24528 63.4016 0.93729C84.9829 -0.370703 102.967 16.7967 102.967 38.0516C102.967 51.4585 95.7736 63.2305 84.9829 69.7704C74.0288 76.3104 67.6525 88.5728 67.6525 101.326V189.288C67.6525 204.33 79.7511 216.429 94.7926 216.429H111.142C121.115 216.429 129.944 223.787 130.925 233.76C132.07 245.205 123.077 254.851 111.796 254.851H19.9119C8.63072 254.851 -0.361496 245.205 0.782959 233.76C1.76393 223.787 10.5927 216.429 20.5659 216.429Z" fill="url(#paint0_linear_91_685)"/>
<defs>
<linearGradient id="paint0_linear_91_685" x1="65.854" y1="0.867187" x2="65.854" y2="254.851" gradientUnits="userSpaceOnUse">
<stop stop-color="#FFD65B"/>
<stop offset="1" stop-color="#F1C336"/>
</linearGradient>
</defs>
</svg>
