<svg width="131" height="255" viewBox="0 0 131 255" fill="none" xmlns="http://www.w3.org/2000/svg">
<path d="M110.879 216.429H94.5299C79.4884 216.429 67.3897 204.33 67.3897 189.288V103.451C67.3897 89.3903 74.747 76.6374 86.3552 68.6259C96.8189 61.432 103.522 49.0061 102.541 35.1086C101.233 16.9602 86.1917 2.24528 68.0437 0.93729C46.4624 -0.370703 28.4779 16.7967 28.4779 38.0516C28.4779 51.4585 35.6717 63.2305 46.4624 69.7704C57.4165 76.3104 63.7929 88.5728 63.7929 101.326V189.288C63.7929 204.33 51.6942 216.429 36.6527 216.429H20.3032C10.33 216.429 1.50122 223.787 0.520246 233.76C-0.62422 245.205 8.36801 254.851 19.6492 254.851H111.533C122.815 254.851 131.807 245.205 130.662 233.76C129.681 223.787 120.853 216.429 110.879 216.429Z" fill="url(#paint0_linear_91_684)"/>
<defs>
<linearGradient id="paint0_linear_91_684" x1="65.5913" y1="0.867187" x2="65.5913" y2="254.851" gradientUnits="userSpaceOnUse">
<stop stop-color="#FFD65B"/>
<stop offset="1" stop-color="#F1C336"/>
</linearGradient>
</defs>
</svg>
