<svg width="356" height="303" viewBox="0 0 356 303" fill="none" xmlns="http://www.w3.org/2000/svg">
<path d="M225.361 3.38672C225.361 3.38672 9.0071 7.70044 1.32925 70.2407C-1.43175 92.7306 43.5014 111.215 43.5014 111.215C43.5014 111.215 102.237 138.326 209.546 138.326C352.249 138.326 348.86 111.215 348.86 111.215C348.86 111.215 353.377 78.5589 183.942 82.872" stroke="#494949" stroke-width="0.917135"/>
<path d="M185.819 159.709C357.186 155.401 352.618 188.019 352.618 188.019C352.618 188.019 356.045 215.099 211.715 215.099C103.182 215.099 43.7767 188.019 43.7767 188.019C43.7767 188.019 -1.66887 169.557 1.12362 147.093C6.86725 100.889 128.851 83.001 184.069 83.001" stroke="#494949" stroke-width="0.917135"/>
<path d="M213.594 291.496C105.061 291.496 45.6556 264.416 45.6556 264.416C45.6556 264.416 0.210034 245.954 3.00252 223.49C8.74616 177.286 130.73 159.398 185.948 159.398" stroke="#494949" stroke-width="0.917135"/>
<circle cx="225.269" cy="3.38635" r="3.38635" fill="white"/>
<circle cx="39.5817" cy="109.491" r="3.38635" fill="white"/>
<circle cx="39.5817" cy="185.684" r="3.38635" fill="white"/>
<circle cx="348.871" cy="112.878" r="3.38635" fill="white"/>
<circle cx="352.257" cy="189.071" r="3.38635" fill="white"/>
<path d="M224.941 291.394L221.023 292.039C217.517 292.617 214.77 295.364 214.193 298.869L213.547 302.788L212.902 298.869C212.325 295.364 209.577 292.617 206.072 292.039L202.154 291.394L206.072 290.748C209.577 290.171 212.325 287.424 212.902 283.919L213.547 280L214.193 283.919C214.77 287.424 217.517 290.171 221.023 290.748L224.941 291.394Z" fill="white"/>
</svg>
