<svg width="568" height="840" viewBox="0 0 568 840" fill="none" xmlns="http://www.w3.org/2000/svg">
<path d="M359.285 5.4082C359.285 5.4082 13.7842 12.2969 1.5233 112.169C-2.88579 148.083 68.8688 177.601 68.8688 177.601C68.8688 177.601 162.665 220.896 334.029 220.896C561.914 220.896 556.503 177.601 556.503 177.601C556.503 177.601 563.715 125.452 293.142 132.34" stroke="#494949" stroke-width="1.46459"/>
<path d="M296.142 255.043C569.801 248.164 562.506 300.252 562.506 300.252C562.506 300.252 567.979 343.496 337.495 343.496C164.177 343.496 69.311 300.252 69.311 300.252C69.311 300.252 -3.26198 270.768 1.1974 234.896C10.3695 161.112 205.168 132.546 293.347 132.546" stroke="#494949" stroke-width="1.46459"/>
<path d="M296.142 377.895C569.801 371.015 562.506 423.103 562.506 423.103C562.506 423.103 567.979 466.348 337.495 466.348C164.177 466.348 69.311 423.103 69.311 423.103C69.311 423.103 -3.26198 393.62 1.1974 357.748C10.3695 283.964 199.251 255.043 298.377 255.043" stroke="#494949" stroke-width="1.46459"/>
<path d="M296.142 500.747C569.801 493.867 562.506 545.955 562.506 545.955C562.506 545.955 567.979 589.2 337.495 589.2C164.177 589.2 69.311 545.955 69.311 545.955C69.311 545.955 -3.26198 516.472 1.1974 480.599C10.3695 406.816 199.251 377.895 298.377 377.895" stroke="#494949" stroke-width="1.46459"/>
<path d="M296.142 623.598C569.801 616.719 562.506 668.807 562.506 668.807C562.506 668.807 567.979 712.051 337.495 712.051C164.177 712.051 69.311 668.807 69.311 668.807C69.311 668.807 -3.26198 639.323 1.1974 603.451C10.3695 529.667 199.251 500.746 298.377 500.746" stroke="#494949" stroke-width="1.46459"/>
<path d="M337.495 834.903C164.177 834.903 69.311 791.658 69.311 791.658C69.311 791.658 -3.26198 762.175 1.1974 726.302C10.3695 652.519 199.251 623.598 298.376 623.598" stroke="#494949" stroke-width="1.46459"/>
<circle cx="359.142" cy="5.40773" r="5.40773" fill="white"/>
<circle cx="62.6187" cy="174.849" r="5.40773" fill="white"/>
<circle cx="62.6187" cy="296.523" r="5.40773" fill="white"/>
<circle cx="62.6187" cy="420" r="5.40773" fill="white"/>
<circle cx="62.6187" cy="543.476" r="5.40773" fill="white"/>
<circle cx="62.6187" cy="666.953" r="5.40773" fill="white"/>
<circle cx="556.525" cy="180.257" r="5.40773" fill="white"/>
<circle cx="561.931" cy="301.931" r="5.40773" fill="white"/>
<circle cx="561.931" cy="425.408" r="5.40773" fill="white"/>
<circle cx="561.931" cy="548.884" r="5.40773" fill="white"/>
<circle cx="561.931" cy="672.361" r="5.40773" fill="white"/>
<circle cx="337.181" cy="834.592" r="5.40773" fill="white"/>
</svg>
