<svg width="8" height="26" viewBox="0 0 8 26" fill="none" xmlns="http://www.w3.org/2000/svg">
<path d="M5.83454 2.38305C5.65101 4.50667 5.55925 7.79697 5.55925 12.254C5.55925 16.7109 5.67723 20.3158 5.91319 23.0687L7.32894 23.1867C7.38137 23.6061 7.40759 23.9732 7.40759 24.2878C7.40759 24.5762 7.36826 24.9432 7.28961 25.3889C6.372 25.3627 5.31019 25.3496 4.10418 25.3496C2.89817 25.3496 1.84947 25.3627 0.958076 25.3889C0.879423 24.9957 0.840097 24.6548 0.840097 24.3665C0.840097 24.0518 0.866314 23.6586 0.91875 23.1867L2.29517 23.0687C2.50491 20.2372 2.60978 16.6323 2.60978 12.254C2.60978 7.84941 2.4918 4.55911 2.25584 2.38305L0.91875 2.26508C0.866314 1.8456 0.840097 1.49166 0.840097 1.20327C0.840097 0.888655 0.879423 0.508501 0.958076 0.0628046C1.87569 0.0890217 2.9375 0.10213 4.14351 0.10213C5.34951 0.10213 6.39821 0.0890217 7.28961 0.0628046C7.36826 0.456067 7.40759 0.810003 7.40759 1.12461C7.40759 1.41301 7.38137 1.79316 7.32894 2.26508L5.83454 2.38305Z" fill="white"/>
</svg>
