<svg width="17" height="35" viewBox="0 0 17 35" fill="none" xmlns="http://www.w3.org/2000/svg">
<path d="M4.42225 26.3157C6.13345 24.9044 7.03102 24.201 8.05025 22.2669C8.99568 24.1422 9.86695 24.7763 11.5343 26.0632C14.1199 28.0714 12.6075 30.8718 10.5363 31.0831C9.24442 31.2174 8.48 30.3234 8.1416 29.7573C8.24372 30.5311 8.44258 31.9203 8.72638 32.523L6.98113 32.5822C7.2865 31.9432 7.53828 30.5499 7.66737 29.7715C7.30032 30.3564 6.49915 31.3135 5.20926 31.2728C3.14483 31.2133 1.73664 28.5166 4.42225 26.3157Z" fill="url(#paint0_linear_324_6360)"/>
<g style="mix-blend-mode:screen">
<path d="M10.5415 30.949C10.4899 30.9575 10.434 30.9545 10.3942 30.958C10.3662 30.9565 10.3501 30.95 10.3265 30.9601C9.23174 28.7999 7.82725 26.7983 6.12447 25.0576C6.86295 24.3683 7.44975 23.6766 8.05408 22.562C8.93682 24.2363 9.78888 24.892 11.3006 26.0575L11.4519 26.1673C12.5551 27.0511 13.0037 28.1598 12.6454 29.2367C12.3377 30.158 11.4917 30.8529 10.5415 30.949Z" fill="url(#paint1_radial_324_6360)"/>
</g>
<path d="M6.55765 17.8178C8.48481 17.7737 10.2695 17.2168 11.3857 16.4569C13.0485 15.3669 13.2013 14.3115 13.2356 13.2389L13.5199 4.34041C13.5744 2.63222 13.7325 2.03316 15.8385 1.98499L15.9577 1.98227L15.9615 1.86309L6.68333 2.07531L6.67952 2.19449L6.79873 2.19176C8.9047 2.14359 9.02473 2.73629 8.97017 4.44448L8.6637 14.0382C8.62436 15.2696 8.50111 16.642 7.06703 17.4092C6.76394 17.5749 6.38455 17.6431 5.96733 17.6527C5.29183 17.6681 4.42527 17.4497 4.07717 17.16C3.6496 16.872 3.42135 16.5597 3.14681 15.8316C3.41924 16.004 3.93136 16.1312 4.48765 16.1185C6.47441 16.073 7.02313 14.4329 7.04915 13.6186C7.10689 11.8111 5.60183 11.0714 4.52898 11.096C2.99917 11.131 1.72487 12.4899 1.67347 14.0988C1.59987 16.4029 3.57751 17.8859 6.55765 17.8178Z" fill="url(#paint2_linear_324_6360)"/>
<defs>
<linearGradient id="paint0_linear_324_6360" x1="12.0649" y1="25.8308" x2="2.91549" y2="29.3068" gradientUnits="userSpaceOnUse">
<stop stop-color="#F8CE4F"/>
<stop offset="1" stop-color="#E1B83C"/>
</linearGradient>
<radialGradient id="paint1_radial_324_6360" cx="0" cy="0" r="1" gradientUnits="userSpaceOnUse" gradientTransform="translate(4.47832 25.1242) rotate(177.949) scale(10.9667 10.9347)">
<stop stop-color="#C4C6C8"/>
<stop offset="0.0218959" stop-color="#B5B7B9"/>
<stop offset="0.0927206" stop-color="#8B8C8E"/>
<stop offset="0.1692" stop-color="#666768"/>
<stop offset="0.2503" stop-color="#464747"/>
<stop offset="0.3375" stop-color="#2C2D2D"/>
<stop offset="0.4331" stop-color="#191919"/>
<stop offset="0.5415" stop-color="#0B0B0B"/>
<stop offset="0.6733" stop-color="#020203"/>
<stop offset="0.8948"/>
</radialGradient>
<linearGradient id="paint2_linear_324_6360" x1="9.17301" y1="0.580561" x2="9.66931" y2="22.2781" gradientUnits="userSpaceOnUse">
<stop stop-color="#F8CE4F"/>
<stop offset="1" stop-color="#E1B83C"/>
</linearGradient>
</defs>
</svg>
