<svg width="141" height="80" viewBox="0 0 141 80" fill="none" xmlns="http://www.w3.org/2000/svg">
<path opacity="0.3" d="M81.4881 67.1938C62.3027 74.9452 43.7061 78.9003 29.1531 79.0346C21.8759 79.1017 15.6205 78.2134 10.8109 76.3747C6.0017 74.5362 2.65684 71.7558 1.15875 68.0479C-0.339342 64.34 0.135309 60.0164 2.31766 55.3531C4.50017 50.6895 8.38278 45.7051 13.6642 40.6983C24.2261 30.6854 40.3508 20.6122 59.5361 12.8608C78.7215 5.10945 97.3181 1.15435 111.871 1.02008C119.148 0.952931 125.404 1.84129 130.213 3.67993C135.023 5.51843 138.367 8.29885 139.865 12.0068C141.364 15.7147 140.889 20.0383 138.707 24.7015C136.524 29.3652 132.641 34.3495 127.36 39.3564C116.798 49.3692 100.673 59.4424 81.4881 67.1938Z" stroke="white" stroke-width="0.4"/>
</svg>
