<svg width="34" height="34" viewBox="0 0 34 34" fill="none" xmlns="http://www.w3.org/2000/svg">
<path d="M24.8786 12.6451C20.4163 9.0976 18.0743 7.33426 15.4584 2.33154C12.891 7.38779 10.567 9.15617 6.11662 12.734C-0.78477 18.3158 3.09928 25.5553 8.55781 25.8934C11.9625 26.111 14.0145 23.6674 14.9295 22.1354C14.6302 24.1911 14.0519 27.8831 13.2797 29.506L17.8838 29.4769C17.1024 27.8207 16.4914 24.1657 16.1806 22.1225C17.1269 23.629 19.2047 26.0731 22.6108 25.8284C28.062 25.4516 31.8824 18.1757 24.8786 12.6451Z" fill="url(#paint0_linear_313_88)"/>
<g style="mix-blend-mode:screen">
<path d="M8.55528 25.5357C8.69106 25.5528 8.83885 25.5389 8.94369 25.544C9.01758 25.5371 9.06053 25.5181 9.12242 25.5422C12.0949 19.7174 15.8788 14.2788 20.4401 9.49779C18.5174 7.75478 16.9952 5.98913 15.443 3.10814C13.0487 7.62634 10.7746 9.44968 6.73988 12.6904L6.33623 12.9966C3.39056 15.4494 2.16387 18.4269 3.06814 21.2345C3.84494 23.6365 6.05116 25.3828 8.55528 25.5357Z" fill="url(#paint1_radial_313_88)"/>
</g>
<defs>
<linearGradient id="paint0_linear_313_88" x1="4.72524" y1="12.1763" x2="28.3673" y2="21.3511" gradientUnits="userSpaceOnUse">
<stop stop-color="#F8CE4F"/>
<stop offset="1" stop-color="#E1B83C"/>
</linearGradient>
<radialGradient id="paint1_radial_313_88" cx="0" cy="0" r="1" gradientUnits="userSpaceOnUse" gradientTransform="translate(24.7824 9.49862) rotate(-0.253865) scale(28.9123)">
<stop stop-color="#C4C6C8"/>
<stop offset="0.0218959" stop-color="#B5B7B9"/>
<stop offset="0.0927206" stop-color="#8B8C8E"/>
<stop offset="0.1692" stop-color="#666768"/>
<stop offset="0.2503" stop-color="#464747"/>
<stop offset="0.3375" stop-color="#2C2D2D"/>
<stop offset="0.4331" stop-color="#191919"/>
<stop offset="0.5415" stop-color="#0B0B0B"/>
<stop offset="0.6733" stop-color="#020203"/>
<stop offset="0.8948"/>
</radialGradient>
</defs>
</svg>
