<svg width="275" height="152" viewBox="0 0 275 152" fill="none" xmlns="http://www.w3.org/2000/svg">
<path opacity="0.3" d="M158.673 128.664C121.275 143.581 85.0698 151.154 56.7757 151.349C42.6273 151.447 30.4783 149.701 21.1526 146.122C11.8274 142.543 5.36342 137.149 2.50027 129.971C-0.362876 122.792 0.614326 114.43 4.91666 105.416C9.21921 96.4011 16.8311 86.7726 27.1631 77.1063C47.8251 57.7755 79.3028 38.3521 116.701 23.4353C154.1 8.51856 190.304 0.946203 218.599 0.750293C232.747 0.65233 244.896 2.39903 254.222 5.97801C263.547 9.55679 270.011 14.9509 272.874 22.1292C275.737 29.3076 274.76 37.6697 270.458 46.6839C266.155 55.6987 258.543 65.3272 248.211 74.9935C227.549 94.3242 196.071 113.748 158.673 128.664Z" stroke="white" stroke-width="0.792244"/>
</svg>
